<!-- icon666.com - MILLIONS vector ICONS FREE --><svg viewBox="-72 0 496 496" xmlns="http://www.w3.org/2000/svg"><path d="m232 488h-192c-17.671875 0-32-14.328125-32-32v-416c0-17.671875 14.328125-32 32-32h192c17.671875 0 32 14.328125 32 32v416c0 17.671875-14.328125 32-32 32zm0 0" fill="#6696af"></path><path d="m240 456v-416c0-17.671875-14.328125-32-32-32h-168c-17.671875 0-32 14.328125-32 32v416c0 17.671875 14.328125 32 32 32h168c17.671875 0 32-14.328125 32-32zm0 0" fill="#88c8e9"></path><path d="m320 392h-208c-13.257812 0-24-10.742188-24-24v-240c0-13.257812 10.742188-24 24-24h208c13.257812 0 24 10.742188 24 24v240c0 13.257812-10.742188 24-24 24zm0 0" fill="#ccc"></path><path d="m320 368v-240c0-13.257812-10.742188-24-24-24h-184c-13.257812 0-24 10.742188-24 24v240c0 13.257812 10.742188 24 24 24h184c13.257812 0 24-10.742188 24-24zm0 0" fill="#e6e6e6"></path><path d="m312 264v-32h-17.609375c-2.007813-9.871094-5.871094-19.054688-11.152344-27.238281l12.761719-12.761719-24-24-12.761719 12.761719c-8.191406-5.28125-17.367187-9.144531-27.238281-11.152344v-17.609375h-32v17.609375c-9.871094 2.007813-19.054688 5.871094-27.238281 11.152344l-12.761719-12.761719-24 24 12.761719 12.761719c-5.28125 8.191406-9.144531 17.367187-11.152344 27.238281h-17.609375v32h17.609375c2.007813 9.871094 5.871094 19.054688 11.152344 27.238281l-12.761719 12.761719 24 24 12.761719-12.761719c8.191406 5.28125 17.367187 9.144531 27.238281 11.152344v17.609375h32v-17.609375c9.871094-2.007813 19.054688-5.871094 27.238281-11.152344l12.761719 12.761719 24-24-12.761719-12.761719c5.28125-8.191406 9.144531-17.367187 11.152344-27.238281zm0 0" fill="#ddaf89"></path><path d="m264 248c0 26.507812-21.492188 48-48 48s-48-21.492188-48-48 21.492188-48 48-48 48 21.492188 48 48zm0 0" fill="#ccc"></path><path d="m240 248c0-25.640625-16.117188-46.425781-36-46.425781s-36 20.785156-36 46.425781 16.117188 46.425781 36 46.425781 36-20.785156 36-46.425781zm0 0" fill="#e6e6e6"></path><path d="m56 488v-16c0-8.839844 7.160156-16 16-16h128c8.839844 0 16 7.160156 16 16v16" fill="#373c43"></path><path d="m168 456h-96c-8.839844 0-16 7.160156-16 16v16h128v-16c0-8.839844-7.160156-16-16-16zm0 0" fill="#495059"></path><path d="m240 8-48 48h-112l-48-48zm0 0" fill="#373c43"></path><path d="m32 8 48 48h80l48-48zm0 0" fill="#495059"></path><path d="m232 496h-192c-22.054688 0-40-17.945312-40-40v-416c0-22.054688 17.945312-40 40-40h192c22.054688 0 40 17.945312 40 40v64h-16v-64c0-13.230469-10.769531-24-24-24h-192c-13.230469 0-24 10.769531-24 24v416c0 13.230469 10.769531 24 24 24h192c13.230469 0 24-10.769531 24-24v-64h16v64c0 22.054688-17.945312 40-40 40zm0 0"></path><path d="m192 64h-112c-2.128906 0-4.160156-.839844-5.65625-2.34375l-48-48 11.3125-11.3125 45.65625 45.65625h105.375l45.65625-45.65625 11.3125 11.3125-48 48c-1.496094 1.503906-3.527344 2.34375-5.65625 2.34375zm0 0"></path><path d="m224 488h-16v-16c0-4.414062-3.585938-8-8-8h-128c-4.414062 0-8 3.585938-8 8v16h-16v-16c0-13.230469 10.769531-24 24-24h128c13.230469 0 24 10.769531 24 24zm0 0"></path><path d="m232 352h-32c-4.425781 0-8-3.574219-8-8v-11.328125c-6.214844-1.769531-12.222656-4.230469-17.984375-7.375l-8.359375 8.359375c-3.128906 3.128906-8.183594 3.128906-11.3125 0l-24-24c-3.128906-3.128906-3.128906-8.183594 0-11.3125l8.359375-8.359375c-3.144531-5.761719-5.605469-11.769531-7.375-17.984375h-11.328125c-4.425781 0-8-3.574219-8-8v-32c0-4.414062 3.574219-8 8-8h11.328125c1.769531-6.214844 4.230469-12.230469 7.375-17.984375l-8.359375-8.359375c-3.128906-3.128906-3.128906-8.183594 0-11.3125l24-24c3.128906-3.128906 8.183594-3.128906 11.3125 0l8.359375 8.359375c5.753906-3.144531 11.769531-5.605469 17.984375-7.375v-11.328125c0-4.414062 3.574219-8 8-8h32c4.425781 0 8 3.585938 8 8v11.328125c6.214844 1.769531 12.230469 4.230469 17.984375 7.375l8.359375-8.359375c3.128906-3.128906 8.183594-3.128906 11.3125 0l24 24c3.128906 3.128906 3.128906 8.183594 0 11.3125l-8.359375 8.359375c3.144531 5.753906 5.605469 11.769531 7.375 17.984375h11.328125c4.425781 0 8 3.585938 8 8v32c0 4.425781-3.574219 8-8 8h-11.328125c-1.769531 6.214844-4.230469 12.222656-7.375 17.984375l8.359375 8.359375c3.128906 3.128906 3.128906 8.183594 0 11.3125l-24 24c-3.128906 3.128906-8.183594 3.128906-11.3125 0l-8.359375-8.359375c-5.761719 3.144531-11.769531 5.605469-17.984375 7.375v11.328125c0 4.425781-3.574219 8-8 8zm-24-16h16v-9.609375c0-3.804687 2.679688-7.085937 6.414062-7.839844 8.632813-1.742187 16.875-5.125 24.496094-10.03125 3.152344-2.015625 7.3125-1.597656 9.984375 1.074219l7.105469 7.09375 12.6875-12.6875-7.101562-7.105469c-2.664063-2.664062-3.113282-6.824219-1.074219-9.984375 4.902343-7.621094 8.289062-15.863281 10.03125-24.496094.761719-3.734374 4.042969-6.414062 7.847656-6.414062h9.609375v-16h-9.609375c-3.804687 0-7.085937-2.679688-7.839844-6.40625-1.742187-8.640625-5.125-16.882812-10.03125-24.496094-2.039062-3.167968-1.589843-7.328125 1.074219-9.992187l7.09375-7.105469-12.6875-12.6875-7.105469 7.101562c-2.671875 2.675782-6.839843 3.105469-9.992187 1.066407-7.605469-4.90625-15.847656-8.28125-24.496094-10.03125-3.726562-.761719-6.40625-4.042969-6.40625-7.839844v-9.609375h-16v9.609375c0 3.804687-2.679688 7.078125-6.40625 7.839844-8.648438 1.75-16.890625 5.136719-24.496094 10.03125-3.160156 2.039062-7.320312 1.609375-9.992187-1.066407l-7.105469-7.101562-12.6875 12.6875 7.101562 7.105469c2.664063 2.664062 3.113282 6.824219 1.074219 9.992187-4.902343 7.621094-8.289062 15.863282-10.03125 24.496094-.761719 3.726562-4.042969 6.40625-7.847656 6.40625h-9.609375v16h9.609375c3.804687 0 7.085937 2.679688 7.839844 6.414062 1.742187 8.632813 5.125 16.875 10.03125 24.496094 2.039062 3.167969 1.589843 7.320313-1.074219 9.984375l-7.09375 7.105469 12.6875 12.6875 7.105469-7.101562c2.671875-2.675782 6.832031-3.089844 9.984375-1.074219 7.621094 4.902343 15.863281 8.289062 24.496094 10.03125 3.734374.761719 6.414062 4.042969 6.414062 7.847656zm0 0"></path><path d="m216 304c-30.871094 0-56-25.128906-56-56 0-30.878906 25.128906-56 56-56s56 25.121094 56 56c0 30.871094-25.128906 56-56 56zm0-96c-22.054688 0-40 17.945312-40 40s17.945312 40 40 40 40-17.945312 40-40-17.945312-40-40-40zm0 0"></path><path d="m320 400h-208c-17.648438 0-32-14.351562-32-32v-240c0-17.648438 14.351562-32 32-32h208c17.648438 0 32 14.351562 32 32v240c0 17.648438-14.351562 32-32 32zm-208-288c-8.824219 0-16 7.175781-16 16v240c0 8.824219 7.175781 16 16 16h208c8.824219 0 16-7.175781 16-16v-240c0-8.824219-7.175781-16-16-16zm0 0"></path></svg>