<!-- icon666.com - MILLIONS vector ICONS FREE --><svg viewBox="-72 0 496 496" xmlns="http://www.w3.org/2000/svg"><path d="m312 224h-11.328125c-1.769531-6.214844-4.230469-12.230469-7.375-17.984375l8.359375-8.359375c3.128906-3.128906 3.128906-8.183594 0-11.3125l-24-24c-3.128906-3.128906-8.183594-3.128906-11.3125 0l-8.359375 8.359375c-5.753906-3.144531-11.769531-5.605469-17.984375-7.375v-11.328125c0-4.414062-3.574219-8-8-8h-32c-4.425781 0-8 3.585938-8 8v11.328125c-6.214844 1.769531-12.230469 4.230469-17.984375 7.375l-8.359375-8.359375c-3.128906-3.128906-8.183594-3.128906-11.3125 0l-24 24c-3.128906 3.128906-3.128906 8.183594 0 11.3125l8.359375 8.359375c-3.144531 5.753906-5.605469 11.769531-7.375 17.984375h-11.328125c-4.425781 0-8 3.585938-8 8v32c0 4.425781 3.574219 8 8 8h11.328125c1.769531 6.214844 4.230469 12.222656 7.375 17.984375l-8.359375 8.359375c-3.128906 3.128906-3.128906 8.183594 0 11.3125l24 24c3.128906 3.128906 8.183594 3.128906 11.3125 0l8.359375-8.359375c5.761719 3.144531 11.769531 5.605469 17.984375 7.375v11.328125c0 4.425781 3.574219 8 8 8h32c4.425781 0 8-3.574219 8-8v-11.328125c6.214844-1.769531 12.222656-4.230469 17.984375-7.375l8.359375 8.359375c3.128906 3.128906 8.183594 3.128906 11.3125 0l24-24c3.128906-3.128906 3.128906-8.183594 0-11.3125l-8.359375-8.359375c3.144531-5.761719 5.605469-11.769531 7.375-17.984375h11.328125c4.425781 0 8-3.574219 8-8v-32c0-4.414062-3.574219-8-8-8zm-8 32h-9.609375c-3.804687 0-7.085937 2.679688-7.839844 6.414062-1.742187 8.632813-5.125 16.875-10.03125 24.496094-2.039062 3.167969-1.589843 7.320313 1.074219 9.984375l7.09375 7.105469-12.6875 12.6875-7.105469-7.101562c-2.671875-2.675782-6.832031-3.089844-9.984375-1.074219-7.621094 4.902343-15.863281 8.289062-24.496094 10.03125-3.734374.761719-6.414062 4.042969-6.414062 7.847656v9.609375h-16v-9.609375c0-3.804687-2.679688-7.085937-6.414062-7.839844-8.632813-1.742187-16.875-5.125-24.496094-10.03125-3.160156-2.015625-7.3125-1.597656-9.984375 1.074219l-7.105469 7.09375-12.6875-12.6875 7.101562-7.105469c2.664063-2.664062 3.113282-6.824219 1.074219-9.984375-4.902343-7.621094-8.289062-15.863281-10.03125-24.496094-.761719-3.734374-4.042969-6.414062-7.847656-6.414062h-9.609375v-16h9.609375c3.804687 0 7.085937-2.679688 7.839844-6.40625 1.742187-8.640625 5.125-16.882812 10.03125-24.496094 2.039062-3.167968 1.589843-7.328125-1.074219-9.992187l-7.09375-7.105469 12.6875-12.6875 7.105469 7.101562c2.671875 2.675782 6.832031 3.105469 9.992187 1.066407 7.605469-4.90625 15.847656-8.28125 24.496094-10.03125 3.726562-.761719 6.40625-4.042969 6.40625-7.839844v-9.609375h16v9.609375c0 3.804687 2.679688 7.078125 6.40625 7.839844 8.648438 1.75 16.890625 5.136719 24.496094 10.03125 3.152344 2.039062 7.320312 1.609375 9.992187-1.066407l7.105469-7.101562 12.6875 12.6875-7.101562 7.105469c-2.664063 2.664062-3.113282 6.824219-1.074219 9.992187 4.902343 7.621094 8.289062 15.863282 10.03125 24.496094.761719 3.726562 4.042969 6.40625 7.847656 6.40625h9.609375zm0 0"></path><path d="m216 192c-30.871094 0-56 25.121094-56 56 0 30.871094 25.128906 56 56 56s56-25.128906 56-56c0-30.878906-25.128906-56-56-56zm0 96c-22.054688 0-40-17.945312-40-40s17.945312-40 40-40 40 17.945312 40 40-17.945312 40-40 40zm0 0"></path><path d="m320 96h-48v-56c0-22.054688-17.945312-40-40-40h-192c-22.054688 0-40 17.945312-40 40v416c0 22.054688 17.945312 40 40 40h192c22.054688 0 40-17.945312 40-40v-56h48c17.648438 0 32-14.351562 32-32v-240c0-17.648438-14.351562-32-32-32zm-99.3125-80-32 32h-105.375l-32-32zm-12.6875 464h-144v-8c0-4.414062 3.585938-8 8-8h128c4.414062 0 8 3.585938 8 8zm48-24c0 13.230469-10.769531 24-24 24h-8v-8c0-13.230469-10.769531-24-24-24h-128c-13.230469 0-24 10.769531-24 24v8h-8c-13.230469 0-24-10.769531-24-24v-416c0-9.902344 6.03125-18.414062 14.609375-22.078125l43.734375 43.734375c1.496094 1.503906 3.527344 2.34375 5.65625 2.34375h112c2.128906 0 4.160156-.839844 5.65625-2.34375l43.734375-43.734375c8.578125 3.664063 14.609375 12.175781 14.609375 22.078125v56h-144c-17.648438 0-32 14.351562-32 32v240c0 17.648438 14.351562 32 32 32h144zm80-88c0 8.824219-7.175781 16-16 16h-208c-8.824219 0-16-7.175781-16-16v-240c0-8.824219 7.175781-16 16-16h208c8.824219 0 16 7.175781 16 16zm0 0"></path></svg>