<!-- icon666.com - MILLIONS vector ICONS FREE --><svg viewBox="0 0 512 512" xmlns="http://www.w3.org/2000/svg"><path d="m468.046875 194.863281c-4.558594-15.832031-10.890625-31.097656-18.890625-45.550781l16.382812-45.8125-57.039062-57.039062-45.8125 16.378906c-14.453125-7.996094-29.71875-14.328125-45.554688-18.886719l-20.796874-43.953125h-80.671876l-20.796874 43.953125c-15.835938 4.558594-31.101563 10.890625-45.554688 18.890625l-45.8125-16.382812-57.039062 57.039062 16.382812 45.8125c-8 14.453125-14.332031 29.71875-18.890625 45.550781l-43.953125 20.800781v80.671876l43.953125 20.796874c4.558594 15.835938 10.890625 31.101563 18.890625 45.554688l-16.382812 45.8125 57.039062 57.039062 45.8125-16.382812c14.453125 8 29.722656 14.332031 45.554688 18.890625l20.796874 43.953125h80.671876l20.796874-43.953125c15.832032-4.558594 31.101563-10.890625 45.554688-18.890625l45.8125 16.382812 57.039062-57.039062-16.382812-45.8125c8-14.453125 14.332031-29.71875 18.890625-45.554688l43.953125-20.796874v-80.671876zm-81.410156 61.136719c0 72.035156-58.601563 130.636719-130.636719 130.636719s-130.636719-58.601563-130.636719-130.636719 58.601563-130.636719 130.636719-130.636719 130.636719 58.601563 130.636719 130.636719zm0 0"></path><path d="m256 155.363281c-55.492188 0-100.636719 45.144531-100.636719 100.636719s45.144531 100.636719 100.636719 100.636719 100.636719-45.144531 100.636719-100.636719-45.144531-100.636719-100.636719-100.636719zm0 0"></path></svg>