<!-- icon666.com - MILLIONS vector ICONS FREE --><svg xmlns="http://www.w3.org/2000/svg" viewBox="0 0 64 64"><g id="Layer_74" data-name="Layer 74"><path d="M51.42,27.11l-19-19a.6.6,0,0,0-.84,0l-19,19a.6.6,0,0,0-.18.43V47.27A2.72,2.72,0,0,0,15,50.06H49a2.72,2.72,0,0,0,2.64-2.79V27.54A.6.6,0,0,0,51.42,27.11ZM41.63,40.58H22.37v-2.7H41.63Zm0-3.9H22.37V34H41.63Zm-19.26,5.1H41.63v2.7H22.37Zm19.26-9H22.37V32a2.41,2.41,0,0,1,2.4-2.4H39.23a2.41,2.41,0,0,1,2.4,2.4ZM22.37,48.86V45.68H41.63v3.18Zm28-1.59A1.52,1.52,0,0,1,49,48.86H42.83V32a3.6,3.6,0,0,0-3.6-3.6H24.77a3.6,3.6,0,0,0-3.6,3.6V48.86H15a1.52,1.52,0,0,1-1.44-1.59V27.79L32,9.39l18.4,18.4Z"></path><path d="M50,60.6H14A10.62,10.62,0,0,1,3.4,50V14A10.62,10.62,0,0,1,14,3.4H50A10.62,10.62,0,0,1,60.6,14V50A10.62,10.62,0,0,1,50,60.6ZM14,4.6A9.41,9.41,0,0,0,4.6,14V50A9.41,9.41,0,0,0,14,59.4H50A9.41,9.41,0,0,0,59.4,50V14A9.41,9.41,0,0,0,50,4.6Z"></path></g></svg>