<!-- icon666.com - MILLIONS vector ICONS FREE --><svg viewBox="0 0 409.43931 409" xmlns="http://www.w3.org/2000/svg"><path d="m205.226562 148.875c-30.78125 0-55.828124 25.042969-55.828124 55.824219 0 30.777343 25.046874 55.824219 55.828124 55.824219 30.777344 0 55.824219-25.046876 55.824219-55.824219 0-30.78125-25.046875-55.824219-55.824219-55.824219zm0 101.410156c-25.136718 0-45.585937-20.453125-45.585937-45.585937 0-25.136719 20.449219-45.585938 45.585937-45.585938 25.132813 0 45.582032 20.449219 45.582032 45.585938 0 25.132812-20.449219 45.585937-45.582032 45.585937zm0 0"></path><path d="m300.539062 272.25c1.136719.917969 2.601563 1.320312 4.03125 1.074219 1.429688-.230469 2.699219-1.054688 3.488282-2.277344 8.0625-12.464844 13.714844-26.109375 16.816406-40.546875.304688-1.421875-.003906-2.90625-.859375-4.082031-.851563-1.175781-2.164063-1.933594-3.609375-2.085938-10.0625-1.058593-17.652344-9.5-17.652344-19.632812 0-10.136719 7.589844-18.574219 17.652344-19.636719 1.445312-.148438 2.757812-.910156 3.609375-2.085938.855469-1.171874 1.164063-2.65625.859375-4.078124-3.101562-14.441407-8.753906-28.085938-16.816406-40.550782-.789063-1.21875-2.058594-2.042968-3.488282-2.273437-1.429687-.242188-2.894531.160156-4.03125 1.074219-7.859374 6.34375-19.195312 5.738281-26.347656-1.414063-7.160156-7.160156-7.765625-18.492187-1.417968-26.351563.917968-1.128906 1.304687-2.59375 1.078124-4.03125-.230468-1.429687-1.054687-2.699218-2.277343-3.488281-12.46875-8.058593-26.109375-13.71875-40.550781-16.816406-1.414063-.296875-2.902344.007813-4.078126.863281-1.175781.847656-1.933593 2.164063-2.085937 3.609375-1.058594 10.058594-9.5 17.648438-19.632813 17.648438-10.136718 0-18.578124-7.589844-19.636718-17.648438-.148438-1.445312-.910156-2.761719-2.085938-3.609375-1.167968-.855468-2.667968-1.15625-4.078125-.863281-14.4375 3.097656-28.074219 8.757813-40.550781 16.816406-1.21875.789063-2.046875 2.054688-2.273438 3.488281-.230468 1.4375.160157 2.902344 1.074219 4.03125 6.355469 7.859376 5.75 19.191407-1.410156 26.351563-7.160156 7.152344-18.496094 7.753906-26.351563 1.414063-1.132812-.914063-2.585937-1.316407-4.027343-1.074219-1.433594.230469-2.703125 1.054687-3.492188 2.273437-8.054687 12.449219-13.714843 26.089844-16.820312 40.550782-.304688 1.421874.003906 2.90625.859375 4.078124.851562 1.175782 2.167968 1.9375 3.613281 2.085938 10.058594 1.0625 17.648437 9.5 17.648437 19.636719 0 10.132812-7.589843 18.574219-17.648437 19.632812-1.445313.152344-2.761719.910157-3.613281 2.085938-.855469 1.175781-1.164063 2.660156-.859375 4.082031 3.105469 14.457031 8.765625 28.097656 16.820312 40.546875.789063 1.222656 2.058594 2.046875 3.492188 2.277344 1.441406.246093 2.894531-.15625 4.027343-1.074219 7.855469-6.347656 19.195313-5.738281 26.351563 1.414062 7.160156 7.160157 7.765625 18.488282 1.410156 26.347657-.914062 1.132812-1.304687 2.597656-1.074219 4.03125.226563 1.433593 1.054688 2.699219 2.273438 3.492187 12.476562 8.058594 26.113281 13.71875 40.550781 16.8125 1.402344.304688 2.902344-.003906 4.078125-.859375 1.175782-.851562 1.9375-2.164062 2.085938-3.609375 1.058594-10.058594 9.5-17.652344 19.636718-17.652344 10.132813 0 18.574219 7.59375 19.632813 17.652344.152344 1.445313.910156 2.757813 2.085937 3.609375.878907.640625 1.933594.976563 3.003907.976563.359375 0 .722656-.042969 1.074219-.117188 14.441406-3.09375 28.082031-8.753906 40.550781-16.8125 1.222656-.792968 2.046875-2.0625 2.277343-3.492187.226563-1.433594-.160156-2.898438-1.078124-4.03125-6.347657-7.859375-5.742188-19.1875 1.417968-26.347657 7.148438-7.15625 18.488282-7.761718 26.347656-1.414062zm-33.589843-5.828125c-9.480469 9.480469-11.394531 23.78125-5.324219 35.210937-8.71875 5.089844-18.011719 8.945313-27.734375 11.503907-3.78125-12.378907-15.246094-21.148438-28.664063-21.148438-13.421874 0-24.886718 8.765625-28.667968 21.148438-9.71875-2.558594-19.007813-6.414063-27.734375-11.503907 6.074219-11.429687 4.164062-25.730468-5.320313-35.210937-9.484375-9.476563-23.777344-11.386719-35.207031-5.324219-5.09375-8.710937-8.945313-18-11.511719-27.734375 12.386719-3.78125 21.148438-15.246093 21.148438-28.664062 0-13.421875-8.761719-24.886719-21.148438-28.664063 2.566406-9.738281 6.417969-19.027344 11.511719-27.738281 11.429687 6.070313 25.722656 4.15625 35.207031-5.324219 9.484375-9.480468 11.394532-23.777344 5.320313-35.210937 8.726562-5.089844 18.015625-8.941407 27.734375-11.503907 3.78125 12.386719 15.246094 21.152344 28.667968 21.152344 13.417969 0 24.882813-8.773437 28.664063-21.152344 9.722656 2.5625 19.015625 6.414063 27.734375 11.503907-6.070312 11.433593-4.15625 25.730469 5.324219 35.210937 9.476562 9.472656 23.765625 11.390625 35.210937 5.324219 5.089844 8.714844 8.945313 18.011719 11.503906 27.738281-12.382812 3.777344-21.148437 15.242188-21.148437 28.664063 0 13.417969 8.765625 24.882812 21.148437 28.664062-2.558593 9.726563-6.414062 19.015625-11.503906 27.734375-11.429687-6.0625-25.730468-4.152344-35.210937 5.324219zm0 0"></path><path d="m403.78125 222.328125c-2.839844-.363281-5.347656 1.699219-5.660156 4.511719-.570313 4.984375-1.335938 10-2.28125 14.898437-.53125 2.78125 1.285156 5.464844 4.058594 6 .332031.058594.65625.089844.976562.089844 2.40625 0 4.550781-1.699219 5.023438-4.148437.992187-5.160157 1.796874-10.441407 2.390624-15.691407.320313-2.808593-1.699218-5.34375-4.507812-5.660156zm0 0"></path><path d="m24.933594 279.019531c-1.089844-2.609375-4.089844-3.839843-6.6875-2.769531-2.617188 1.082031-3.855469 4.078125-2.769532 6.6875 2.027344 4.894531 4.257813 9.742188 6.628907 14.40625.90625 1.773438 2.703125 2.800781 4.570312 2.800781.777344 0 1.570313-.179687 2.3125-.554687 2.523438-1.28125 3.527344-4.367188 2.246094-6.886719-2.253906-4.429687-4.371094-9.035156-6.300781-13.683594zm0 0"></path><path d="m374.734375 309.722656c-2.355469-1.554687-5.539063-.890625-7.085937 1.476563-2.75 4.1875-5.695313 8.324219-8.753907 12.285156-1.722656 2.238281-1.308593 5.453125.925781 7.183594.933594.714843 2.035157 1.066406 3.125 1.066406 1.535157 0 3.050782-.6875 4.058594-1.992187 3.214844-4.167969 6.316406-8.519532 9.207032-12.933594 1.550781-2.363282.890624-5.535156-1.476563-7.085938zm0 0"></path><path d="m383.964844 105.414062c-2.550782-4.59375-5.320313-9.15625-8.234375-13.566406-1.566407-2.363281-4.742188-3.003906-7.09375-1.445312-2.363281 1.5625-3.007813 4.734375-1.445313 7.097656 2.769532 4.183594 5.398438 8.523438 7.824219 12.882812.933594 1.6875 2.679687 2.636719 4.480469 2.636719.839844 0 1.695312-.207031 2.480468-.644531 2.472657-1.371094 3.363282-4.492188 1.988282-6.960938zm0 0"></path><path d="m348.675781 73.722656c1.007813 1.105469 2.394531 1.671875 3.785157 1.671875 1.230468 0 2.464843-.441406 3.449218-1.335937 2.089844-1.90625 2.238282-5.140625.335938-7.234375-3.5625-3.90625-7.304688-7.710938-11.136719-11.3125-2.042969-1.929688-5.300781-1.84375-7.234375.226562-1.933594 2.058594-1.835938 5.300781.226562 7.234375 3.632813 3.421875 7.195313 7.035156 10.574219 10.75zm0 0"></path><path d="m46.925781 318.433594c-1.652343-2.289063-4.847656-2.816406-7.144531-1.15625-2.296875 1.65625-2.8125 4.855468-1.15625 7.144531 3.078125 4.273437 6.363281 8.476563 9.769531 12.496094 1.015625 1.199219 2.460938 1.816406 3.914063 1.816406 1.167968 0 2.339844-.402344 3.300781-1.210937 2.160156-1.828126 2.429687-5.058594.605469-7.214844-3.238282-3.824219-6.359375-7.820313-9.289063-11.875zm0 0"></path><path d="m29.40625 98.917969c-2.730469 4.515625-5.316406 9.191406-7.6875 13.902343-1.269531 2.523438-.25 5.601563 2.277344 6.875.738281.367188 1.523437.542969 2.292968.542969 1.875 0 3.679688-1.03125 4.582032-2.820312 2.242187-4.46875 4.699218-8.914063 7.292968-13.199219 1.464844-2.421875.691407-5.566406-1.730468-7.03125-2.421875-1.460938-5.570313-.6875-7.027344 1.730469zm0 0"></path><path d="m10.246094 205.558594-.007813-.859375c0-5.011719.195313-10.082031.578125-15.074219.214844-2.820312-1.894531-5.28125-4.714844-5.496094-2.925781-.179687-5.28125 1.894532-5.496093 4.714844-.402344 5.253906-.605469 10.589844-.605469 15.945312l.00390625.769532c0 2.828125 2.29296875 5.121094 5.12109375 5.121094s5.121094-2.292969 5.121094-5.121094zm0 0"></path><path d="m397.09375 155.851562c.460938 0 .925781-.058593 1.386719-.1875 2.71875-.761718 4.308593-3.585937 3.550781-6.3125-1.421875-5.078124-3.0625-10.164062-4.875-15.109374-.976562-2.648438-3.902344-4.023438-6.570312-3.039063-2.65625.96875-4.015626 3.914063-3.039063 6.570313 1.71875 4.691406 3.273437 9.515624 4.625 14.339843.628906 2.261719 2.6875 3.738281 4.921875 3.738281zm0 0"></path><path d="m302.570312 372.945312c-4.339843 2.527344-8.816406 4.90625-13.300781 7.074219-2.542969 1.222657-3.613281 4.285157-2.382812 6.832031.878906 1.832032 2.707031 2.898438 4.613281 2.898438.746094 0 1.5-.167969 2.21875-.511719 4.722656-2.273437 9.4375-4.78125 14.011719-7.445312 2.441406-1.425781 3.265625-4.558594 1.84375-7.003907-1.417969-2.441406-4.554688-3.265624-7.003907-1.84375zm0 0"></path><path d="m394.398438 267.71875c-2.667969-.976562-5.597657.414062-6.554688 3.074219-1.695312 4.699219-3.605469 9.40625-5.671875 13.980469-1.167969 2.578124-.023437 5.609374 2.554687 6.773437.683594.3125 1.398438.457031 2.101563.457031 1.953125 0 3.816406-1.121094 4.671875-3.011718 2.179688-4.820313 4.191406-9.773438 5.976562-14.71875.957032-2.660157-.417968-5.59375-3.078124-6.554688zm0 0"></path><path d="m15.628906 250.367188c-1.164062-4.839844-2.160156-9.8125-2.953125-14.789063-.445312-2.789063-3.0625-4.691406-5.867187-4.246094-2.789063.445313-4.6875 3.070313-4.242188 5.867188.832032 5.234375 1.882813 10.46875 3.105469 15.558593.5625 2.351563 2.664063 3.925782 4.972656 3.925782.394531 0 .800781-.046875 1.199219-.140625 2.75-.664063 4.445312-3.429688 3.785156-6.175781zm0 0"></path><path d="m171.660156 396.449219c-4.980468-.855469-9.941406-1.910157-14.746094-3.128907-2.738281-.683593-5.527343.964844-6.222656 3.703126-.695312 2.746093.964844 5.53125 3.703125 6.226562 5.066407 1.277344 10.289063 2.386719 15.527344 3.289062.292969.050782.589844.074219.875.074219 2.449219 0 4.609375-1.761719 5.039063-4.25.480468-2.789062-1.390626-5.433593-4.175782-5.914062zm0 0"></path><path d="m125.558594 26.476562c.675781 0 1.367187-.132812 2.03125-.417968 4.609375-1.996094 9.335937-3.824219 14.046875-5.433594 2.671875-.917969 4.097656-3.828125 3.183593-6.507812-.921874-2.671876-3.820312-4.082032-6.503906-3.183594-4.957031 1.699218-9.9375 3.625-14.796875 5.726562-2.59375 1.125-3.785156 4.136719-2.664062 6.734375.835937 1.929688 2.71875 3.082031 4.703125 3.082031zm0 0"></path><path d="m230.894531 11.875c.234375.027344.464844.042969.691407.042969 2.523437 0 4.71875-1.863281 5.070312-4.433594.375-2.800781-1.589844-5.382813-4.390625-5.761719-5.199219-.699218-10.519531-1.203125-15.804687-1.5-2.855469-.105468-5.242188 2-5.394532 4.824219-.160156 2.828125 2 5.242187 4.824219 5.398437 5.019531.28125 10.070313.761719 15.003906 1.429688zm0 0"></path><path d="m170.808594 13.097656c4.929687-.863281 9.957031-1.550781 14.9375-2.035156 2.8125-.269531 4.875-2.773438 4.597656-5.589844-.269531-2.808594-2.738281-4.828125-5.589844-4.597656-5.238281.503906-10.527344 1.226562-15.722656 2.144531-2.785156.488281-4.644531 3.144531-4.152344 5.929688.4375 2.484375 2.597656 4.230469 5.035156 4.230469.296876 0 .597657-.027344.894532-.082032zm0 0"></path><path d="m274.636719 23.054688c.601562.230468 1.226562.339843 1.839843.339843 2.054688 0 3.992188-1.246093 4.777344-3.28125 1.015625-2.640625-.300781-5.605469-2.9375-6.621093-4.90625-1.882813-9.960937-3.605469-15.019531-5.113282-2.75-.808594-5.570313.738282-6.371094 3.441406-.8125 2.707032.734375 5.5625 3.4375 6.367188 4.816407 1.4375 9.617188 3.070312 14.273438 4.867188zm0 0"></path><path d="m314.609375 44.0625c.886719.605469 1.890625.894531 2.886719.894531 1.632812 0 3.238281-.777343 4.230468-2.230469 1.597657-2.332031 1-5.519531-1.335937-7.113281-4.378906-2.996093-8.902344-5.839843-13.429687-8.453125-2.449219-1.417968-5.582032-.578125-6.996094 1.875-1.414063 2.449219-.574219 5.578125 1.875 6.992188 4.304687 2.484375 8.605468 5.191406 12.769531 8.035156zm0 0"></path><path d="m128.351562 383.664062c-4.613281-1.964843-9.195312-4.144531-13.632812-6.464843-2.515625-1.320313-5.59375-.339844-6.910156 2.160156-1.308594 2.503906-.34375 5.597656 2.160156 6.910156 4.671875 2.445313 9.5 4.738281 14.351562 6.8125.660157.28125 1.339844.410157 2.015626.410157 1.984374 0 3.875-1.164063 4.710937-3.105469 1.109375-2.597657-.097656-5.609375-2.695313-6.722657zm0 0"></path><path d="m58.535156 61.347656c-3.691406 3.765625-7.28125 7.722656-10.664062 11.761719-1.820313 2.164063-1.542969 5.394531.628906 7.210937.960938.804688 2.125 1.199219 3.285156 1.199219 1.464844 0 2.914063-.621093 3.925782-1.832031 3.21875-3.835938 6.628906-7.59375 10.132812-11.167969 1.980469-2.019531 1.953125-5.265625-.070312-7.242187-2.023438-1.984375-5.261719-1.945313-7.238282.070312zm0 0"></path><path d="m77.398438 351.75c-2.136719-1.851562-5.363282-1.617188-7.222657.511719-1.851562 2.140625-1.621093 5.375.515625 7.226562 3.984375 3.449219 8.148438 6.789063 12.386719 9.925781.917969.679688 1.988281 1.003907 3.042969 1.003907 1.570312 0 3.113281-.714844 4.117187-2.074219 1.6875-2.269531 1.207031-5.480469-1.066406-7.160156-4.027344-2.980469-7.988281-6.15625-11.773437-9.433594zm0 0"></path><path d="m402.5 175.992188c-2.808594.332031-4.816406 2.875-4.484375 5.6875.585937 4.972656.984375 10.027343 1.1875 15.035156.113281 2.753906 2.382813 4.914062 5.113281 4.914062.070313 0 .136719 0 .207032-.003906 2.828124-.117188 5.027343-2.496094 4.910156-5.320312-.207032-5.269532-.632813-10.589844-1.25-15.828126-.332032-2.808593-2.855469-4.828124-5.683594-4.484374zm0 0"></path><path d="m216.753906 398.894531c-3.933594.234375-7.957031.359375-11.953125.363281l-3.144531-.023437c-2.761719-.066406-5.152344 2.21875-5.191406 5.050781-.039063 2.824219 2.21875 5.148438 5.050781 5.1875l3.289063.027344c4.207031-.007812 8.429687-.136719 12.570312-.386719 2.820312-.167969 4.96875-2.59375 4.800781-5.417969-.171875-2.820312-2.636719-4.90625-5.421875-4.800781zm0 0"></path><path d="m261.191406 390.964844c-4.78125 1.4375-9.6875 2.71875-14.589844 3.792968-2.765624.605469-4.511718 3.335938-3.90625 6.09375.523438 2.398438 2.640626 4.027344 4.996094 4.027344.363282 0 .730469-.039062 1.097656-.121094 5.164063-1.128906 10.332032-2.472656 15.359376-3.996093 2.710937-.8125 4.242187-3.671875 3.421874-6.378907-.808593-2.710937-3.671874-4.238281-6.378906-3.417968zm0 0"></path><path d="m9.273438 163.660156c.398437.089844.792968.132813 1.179687.132813 2.320313 0 4.421875-1.589844 4.980469-3.945313 1.152344-4.890625 2.507812-9.777344 4.027344-14.523437.863281-2.695313-.621094-5.574219-3.316407-6.4375-2.710937-.851563-5.574219.625-6.433593 3.316406-1.601563 5-3.03125 10.144531-4.246094 15.296875-.644532 2.75 1.054687 5.507812 3.808594 6.160156zm0 0"></path><path d="m368.246094 360.242188h-30.261719c2.648437-2.269532 5.261719-4.582032 7.761719-6.953126 2.050781-1.949218 2.132812-5.191406.1875-7.242187-1.949219-2.046875-5.183594-2.128906-7.238282-.1875-3.175781 3.015625-6.523437 5.945313-9.941406 8.773437v-33.882812c0-2.832031-2.289062-5.121094-5.117187-5.121094-2.832031 0-5.121094 2.289063-5.121094 5.121094v44.613281c0 2.832031 2.289063 5.121094 5.121094 5.121094h44.609375c2.828125 0 5.117187-2.289063 5.117187-5.121094 0-2.828125-2.289062-5.121093-5.117187-5.121093zm0 0"></path><path d="m85.335938 95.171875c2.828124 0 5.117187-2.289063 5.117187-5.117187v-42.746094c3.4375-2.5 6.945313-4.917969 10.5-7.171875 2.390625-1.507813 3.105469-4.667969 1.59375-7.058594-1.5-2.382813-4.660156-3.105469-7.0625-1.589844-4.363281 2.757813-8.683594 5.726563-12.851563 8.832031h-41.914062c-2.828125 0-5.117188 2.289063-5.117188 5.117188 0 2.832031 2.289063 5.121094 5.117188 5.121094h39.496094v39.496094c0 2.828124 2.289062 5.117187 5.121094 5.117187zm0 0"></path></svg>